<?xml version="1.0" encoding="UTF-8"?>
<svg id="SVGDoc" width="16" height="12" xmlns="http://www.w3.org/2000/svg" version="1.1" xmlns:xlink="http://www.w3.org/1999/xlink" xmlns:avocode="https://avocode.com/" viewBox="0 0 16 12"><defs></defs><desc>Generated with Avocode.</desc><g><g><title>Icon</title><path d="M6.28576,8.72771c-0.51189,0 -1.03568,-0.04565 -1.57139,-0.13644c-0.7381,0.50011 -1.56554,0.86361 -2.48221,1.091c-0.21421,0.05138 -0.4702,0.09652 -0.76778,0.13627h-0.02685c-0.06551,0 -0.12643,-0.0224 -0.18306,-0.06805c-0.05643,-0.04565 -0.0907,-0.10528 -0.10261,-0.17872c-0.00605,-0.01735 -0.00898,-0.03588 -0.00898,-0.05542c0,-0.01988 0.00146,-0.0384 0.00449,-0.05559c0.00293,-0.01684 0.00898,-0.03386 0.01787,-0.05104l0.02236,-0.04245c0,0 0.01045,-0.0155 0.03124,-0.04666c0.0208,-0.0315 0.03271,-0.04565 0.03564,-0.04278c0.00303,0.00303 0.0164,-0.01129 0.04022,-0.04262c0.02382,-0.03116 0.03583,-0.04413 0.03583,-0.03807c0.02968,-0.03436 0.09812,-0.10528 0.20532,-0.21308c0.1072,-0.10797 0.18453,-0.19169 0.23217,-0.25165c0.04774,-0.05929 0.11462,-0.14166 0.20093,-0.24677c0.08631,-0.10511 0.1607,-0.21443 0.22319,-0.32813c0.06248,-0.11387 0.1235,-0.23868 0.18306,-0.37512c-0.7381,-0.40898 -1.31843,-0.91195 -1.74108,-1.50857c-0.42255,-0.59646 -0.63402,-1.23283 -0.63402,-1.90913c0,-0.78966 0.27981,-1.51952 0.83935,-2.19009c0.55943,-0.67023 1.32282,-1.20032 2.29007,-1.58943c0.96734,-0.38944 2.01933,-0.58382 3.15626,-0.58382c1.13693,0 2.18902,0.19438 3.15626,0.58349c0.96724,0.38944 1.73063,0.91902 2.29007,1.58976c0.55953,0.67057 0.83925,1.40043 0.83925,2.19009c0,0.78983 -0.27972,1.52003 -0.83925,2.19026c-0.55943,0.67057 -1.32282,1.20032 -2.29007,1.58943c-0.96724,0.3891 -2.01943,0.58365 -3.15626,0.58332zM4.91979,7.51795c0.46424,0.0795 0.9196,0.11926 1.36598,0.11926c0.91081,0 1.76197,-0.14756 2.55358,-0.44317c0.7916,-0.29528 1.42114,-0.69584 1.8885,-1.20167c0.46717,-0.50567 0.70071,-1.04805 0.70071,-1.62766c0,-0.57961 -0.23354,-1.12217 -0.70071,-1.62783c-0.46737,-0.50583 -1.0969,-0.90605 -1.8885,-1.20167c-0.7916,-0.29528 -1.64286,-0.443 -2.55358,-0.443c-0.91072,0 -1.76187,0.14772 -2.55348,0.443c-0.7917,0.29562 -1.42123,0.69584 -1.88841,1.20167c-0.46717,0.50567 -0.7009,1.04822 -0.7009,1.62783c0,0.46608 0.15768,0.91498 0.47322,1.3467c0.31545,0.43155 0.7589,0.80684 1.33044,1.12469l0.866,0.4772l-0.31252,0.71622c0.20239,-0.11353 0.38682,-0.2247 0.55348,-0.33251l0.39297,-0.26412zM13.62528,9.96424c0.05946,0.13644 0.12048,0.26125 0.18296,0.37495c0.06258,0.11387 0.13698,0.22319 0.22329,0.32813c0.08621,0.10528 0.15328,0.18765 0.20083,0.24727c0.04764,0.05963 0.12497,0.14334 0.23217,0.25115c0.1071,0.10797 0.17554,0.17905 0.20522,0.21325c0.00605,0.00556 0.01806,0.01853 0.03583,0.03807c0.01796,0.01988 0.03124,0.03436 0.03993,0.04262c0.00908,0.00859 0.02089,0.02291 0.03583,0.04278c0.01494,0.01988 0.02499,0.03537 0.03124,0.04666l0.02226,0.04262c0,0 0.00596,0.01701 0.01777,0.05087c0.01172,0.03436 0.01328,0.05289 0.00449,0.05559c-0.00888,0.0027 -0.01181,0.02139 -0.00888,0.05542c-0.01787,0.0795 -0.05663,0.14183 -0.11618,0.18714c-0.05946,0.04565 -0.12507,0.06552 -0.19644,0.0598c-0.29768,-0.03942 -0.55367,-0.08506 -0.76788,-0.13644c-0.91667,-0.2274 -1.74411,-0.59073 -2.48211,-1.09067c-0.53581,0.09079 -1.05951,0.1361 -1.57149,0.1361c-1.61308,0 -3.01782,-0.37495 -4.21421,-1.12469c0.34513,0.02257 0.60708,0.03386 0.78565,0.03386c0.95836,0 1.87806,-0.12785 2.7588,-0.38338c0.88103,-0.2557 1.66678,-0.62223 2.35724,-1.09943c0.74396,-0.52285 1.3155,-1.1252 1.71423,-1.80672c0.39912,-0.68186 0.59829,-1.4033 0.59829,-2.16483c0,-0.43761 -0.06854,-0.86933 -0.20532,-1.29532c0.76778,0.40342 1.37505,0.90909 1.82153,1.517c0.44628,0.60774 0.66947,1.2613 0.66947,1.96017c0,0.68186 -0.21118,1.31924 -0.63393,1.91317c-0.42236,0.5941 -1.00278,1.09572 -1.74059,1.50487z" fill="#212121" fill-opacity="1"></path></g></g></svg>