<?xml version="1.0" encoding="UTF-8"?>
<svg id="SVGDoc" width="46" height="41" xmlns="http://www.w3.org/2000/svg" version="1.1" xmlns:xlink="http://www.w3.org/1999/xlink" xmlns:avocode="https://avocode.com/" viewBox="0 0 46 41"><defs><mask id="Mask1144" x="-1" y="-1" width="2" height="2"><rect width="40" height="35" x="3" y="3" fill="#ffffff"></rect><path d="M2.99992,2.99984v0h40v0v35.00004v0h-40v0z" fill="#000000"></path></mask><filter id="Filter1148" width="66.5" height="61.9" x="-10" y="-10" filterUnits="userSpaceOnUse"><feOffset dx="0.5" dy="0.9" result="FeOffset1149Out" in="SourceGraphic"></feOffset><feGaussianBlur stdDeviation="1.2 1.2" result="FeGaussianBlur1150Out" in="FeOffset1149Out"></feGaussianBlur></filter></defs><desc>Generated with Avocode.</desc><g><g><title>bg</title><g filter="url(#Filter1148)"><path d="M2.99992,2.99984v0h40v0v35.00004v0h-40v0z" fill="none" stroke-opacity="0.75" stroke-width="0" mask="url(&quot;#Mask1144&quot;)"></path><path d="M2.99992,2.99984v0h40v0v35.00004v0h-40v0z" fill="#d5d5d5" fill-opacity="0.75"></path></g><path d="M2.99992,2.99984v0h40v0v35.00004v0h-40v0z" fill="#212121" fill-opacity="1"></path></g><g><title>icon</title><path d="M19.28491,18.35963v0v6.59032c-0.73371,-0.31634 -1.75123,-0.31634 -2.73586,0.18461c-1.46322,0.74586 -1.87591,2.10385 -1.31286,2.96459c0.56295,0.86091 2.10212,1.2239 3.56593,0.47905c1.05365,-0.53733 1.56173,-1.39201 1.55431,-2.14916v-8.28216v0l8.58052,-1.69908v0v7.44012c-0.7342,-0.31634 -1.75133,-0.31634 -2.73595,0.18478c-1.46312,0.7457 -1.87591,2.10351 -1.31237,2.96409c0.56246,0.86108 2.10115,1.22407 3.56544,0.47939c1.0516,-0.53632 1.56065,-1.38982 1.55431,-2.14697v-9.13398v0v-3.18643v0v-1.06203v0l-10.72346,2.12423v0z" fill="#ffffff" fill-opacity="1"></path></g></g></svg>