<?xml version="1.0" encoding="UTF-8"?>
<svg id="SVGDoc" width="46" height="41" xmlns="http://www.w3.org/2000/svg" version="1.1" xmlns:xlink="http://www.w3.org/1999/xlink" xmlns:avocode="https://avocode.com/" viewBox="0 0 46 41"><defs><mask id="Mask1169" x="-1" y="-1" width="2" height="2"><rect width="40" height="35" x="3" y="3" fill="#ffffff"></rect><path d="M2.99994,2.99994v0h40v0v35.00004v0h-40v0z" fill="#000000"></path></mask><filter id="Filter1173" width="66.5" height="61.9" x="-10" y="-10" filterUnits="userSpaceOnUse"><feOffset dx="0.5" dy="0.9" result="FeOffset1174Out" in="SourceGraphic"></feOffset><feGaussianBlur stdDeviation="1.2 1.2" result="FeGaussianBlur1175Out" in="FeOffset1174Out"></feGaussianBlur></filter></defs><desc>Generated with Avocode.</desc><g><g><title>bg</title><g filter="url(#Filter1173)"><path d="M2.99994,2.99994v0h40v0v35.00004v0h-40v0z" fill="none" stroke-opacity="0.75" stroke-width="0" mask="url(&quot;#Mask1169&quot;)"></path><path d="M2.99994,2.99994v0h40v0v35.00004v0h-40v0z" fill="#d5d5d5" fill-opacity="0.75"></path></g><path d="M2.99994,2.99994v0h40v0v35.00004v0h-40v0z" fill="#ffffff" fill-opacity="1"></path></g><g><title>Forma 1</title><path d="M15.0015,19.43624h7.43656v-7.43439h-7.43656zM24.56216,12.00185v7.43439h7.43627v-7.43439zM24.56216,28.99722h7.43627v-7.43489h-7.43627zM15.0015,28.99722h7.43656v-7.43489h-7.43656z" fill="#000000" fill-opacity="1"></path></g></g></svg>