<?xml version="1.0" encoding="UTF-8"?>
<svg id="SVGDoc" width="46" height="41" xmlns="http://www.w3.org/2000/svg" version="1.1" xmlns:xlink="http://www.w3.org/1999/xlink" xmlns:avocode="https://avocode.com/" viewBox="0 0 46 41"><defs><mask id="Mask1094" x="-1" y="-1" width="2" height="2"><rect width="40" height="35" x="3" y="3" fill="#ffffff"></rect><path d="M2.99996,2.99992v0h40v0v35.00004v0h-40v0z" fill="#000000"></path></mask><filter id="Filter1098" width="66.5" height="61.9" x="-10" y="-10" filterUnits="userSpaceOnUse"><feOffset dx="0.5" dy="0.9" result="FeOffset1099Out" in="SourceGraphic"></feOffset><feGaussianBlur stdDeviation="1.2 1.2" result="FeGaussianBlur1100Out" in="FeOffset1099Out"></feGaussianBlur></filter></defs><desc>Generated with Avocode.</desc><g><g><title>bg</title><g filter="url(#Filter1098)"><path d="M2.99996,2.99992v0h40v0v35.00004v0h-40v0z" fill="none" stroke-opacity="0.75" stroke-width="0" mask="url(&quot;#Mask1094&quot;)"></path><path d="M2.99996,2.99992v0h40v0v35.00004v0h-40v0z" fill="#d5d5d5" fill-opacity="0.75"></path></g><path d="M2.99996,2.99992v0h40v0v35.00004v0h-40v0z" fill="#212121" fill-opacity="1"></path></g><g><title>Forma 1</title><path d="M36.87197,30.69864c-0.24867,0.39281 -0.77891,0.51543 -1.18399,0.27473c-3.38179,-2.01222 -7.08216,-0.6667 -8.33634,-0.09888c-0.06073,0.02897 -0.39971,0.18663 -0.44598,0.20078c-1.39526,0.59393 -2.93688,0.92458 -4.55826,0.92458c-6.26663,0 -11.34742,-4.92493 -11.34742,-11.00015c0,-6.07522 5.08079,-11.00015 11.34742,-11.00015c6.26702,0 11.34781,4.92493 11.34781,11.00015c0,2.78857 -1.07093,5.33441 -2.83525,7.27285c1.74371,-0.13341 3.76959,0.11286 5.72868,1.27831c0.40527,0.24104 0.5321,0.75479 0.28333,1.14777zM25.66914,19.82078c0.41835,1.24749 1.80083,1.93052 3.08762,1.52525c1.28699,-0.40561 1.99151,-1.74557 1.57335,-2.9934c-0.41787,-1.24749 -1.80044,-1.93019 -3.08782,-1.52491c-1.28689,0.40527 -1.99121,1.7454 -1.57315,2.99306zM19.8972,15.10606c0,1.31183 1.097,2.37538 2.45018,2.37538c1.35348,0 2.45077,-1.06355 2.45077,-2.37538c0,-1.312 -1.09729,-2.37521 -2.45077,-2.37521c-1.35309,0 -2.45018,1.06321 -2.45018,2.37521zM15.9385,21.34569c1.28689,0.40561 2.66927,-0.27743 3.08743,-1.52491c0.41826,-1.24766 -0.28597,-2.58779 -1.57296,-2.99306c-1.28738,-0.40527 -2.66966,0.27743 -3.08762,1.52491c-0.41875,1.24782 0.28577,2.58779 1.57315,2.99306zM20.29457,23.60602c-1.09495,-0.77096 -2.62719,-0.53565 -3.4226,0.5252c-0.79541,1.06153 -0.5527,2.54702 0.54215,3.31798c1.09485,0.7713 2.62709,0.53582 3.4228,-0.52537c0.79522,-1.06136 0.5525,-2.54685 -0.54235,-3.31782zM23.31903,20.99971c0,-0.51998 -0.43505,-0.94143 -0.97164,-0.94143c-0.5362,0 -0.97125,0.42144 -0.97125,0.94143c0,0.51998 0.43505,0.94143 0.97125,0.94143c0.53659,0 0.97164,-0.42144 0.97164,-0.94143zM27.28114,27.44921c1.09485,-0.77113 1.33766,-2.25663 0.54206,-3.31798c-0.79551,-1.06119 -2.32775,-1.29617 -3.4226,-0.5252c-1.09475,0.77096 -1.33756,2.25646 -0.54235,3.31782c0.7957,1.06119 2.32795,1.29667 3.42289,0.52537z" fill="#ffffff" fill-opacity="1"></path></g></g></svg>