<?xml version="1.0" encoding="UTF-8"?>
<svg id="SVGDoc" width="46" height="41" xmlns="http://www.w3.org/2000/svg" version="1.1" xmlns:xlink="http://www.w3.org/1999/xlink" xmlns:avocode="https://avocode.com/" viewBox="0 0 46 41"><defs><mask id="Mask1018" x="-1" y="-1" width="2" height="2"><rect width="40" height="35" x="3" y="3" fill="#ffffff"></rect><path d="M2.99999,2.99998v0h40v0v34.99987v0h-40v0z" fill="#000000"></path></mask><filter id="Filter1022" width="66.5" height="61.9" x="-10" y="-10" filterUnits="userSpaceOnUse"><feOffset dx="0.5" dy="0.9" result="FeOffset1023Out" in="SourceGraphic"></feOffset><feGaussianBlur stdDeviation="1.2 1.2" result="FeGaussianBlur1024Out" in="FeOffset1023Out"></feGaussianBlur></filter></defs><desc>Generated with Avocode.</desc><g><g><title>bg</title><g filter="url(#Filter1022)"><path d="M2.99999,2.99998v0h40v0v34.99987v0h-40v0z" fill="none" stroke-opacity="0.75" stroke-width="0" mask="url(&quot;#Mask1018&quot;)"></path><path d="M2.99999,2.99998v0h40v0v34.99987v0h-40v0z" fill="#d5d5d5" fill-opacity="0.75"></path></g><path d="M2.99999,2.99998v0h40v0v34.99987v0h-40v0z" fill="#212121" fill-opacity="1"></path></g><g><title>Icon</title><path d="M24.94082,15.66956l3.25204,3.27065l-8.23178,8.27913l-3.25018,-3.27082zM30.66052,16.46007l-1.6205,1.62985l-3.25194,-3.27082l1.38921,-1.3969c0.56236,-0.56395 1.47249,-0.56395 2.033,0l1.45023,1.45838c0.43476,0.43711 0.43476,1.14238 0,1.57949zM15.83035,24.8342l3.25018,3.27099l-3.62382,0.88348c-0.26634,0.06502 -0.50681,-0.17484 -0.44764,-0.44284z" fill="#ffffff" fill-opacity="1"></path></g></g></svg>