<?xml version="1.0" encoding="UTF-8"?>
<svg id="SVGDoc" width="46" height="41" xmlns="http://www.w3.org/2000/svg" version="1.1" xmlns:xlink="http://www.w3.org/1999/xlink" xmlns:avocode="https://avocode.com/" viewBox="0 0 46 41"><defs><mask id="Mask1043" x="-1" y="-1" width="2" height="2"><rect width="40" height="35" x="3" y="3" fill="#ffffff"></rect><path d="M2.99996,2.99999v0h40v0v34.99987v0h-40v0z" fill="#000000"></path></mask><filter id="Filter1047" width="66.5" height="61.9" x="-10" y="-10" filterUnits="userSpaceOnUse"><feOffset dx="0.5" dy="0.9" result="FeOffset1048Out" in="SourceGraphic"></feOffset><feGaussianBlur stdDeviation="1.2 1.2" result="FeGaussianBlur1049Out" in="FeOffset1048Out"></feGaussianBlur></filter></defs><desc>Generated with Avocode.</desc><g><g><title>bg</title><g filter="url(#Filter1047)"><path d="M2.99996,2.99999v0h40v0v34.99987v0h-40v0z" fill="none" stroke-opacity="0.75" stroke-width="0" mask="url(&quot;#Mask1043&quot;)"></path><path d="M2.99996,2.99999v0h40v0v34.99987v0h-40v0z" fill="#d5d5d5" fill-opacity="0.75"></path></g><path d="M2.99996,2.99999v0h40v0v34.99987v0h-40v0z" fill="#212121" fill-opacity="1"></path></g><g><title>Forma 1</title><path d="M35.99991,12.66691v16.66522c0,0.9197 -0.76954,1.66741 -1.7153,1.66741h-22.56939c-0.94577,0 -1.7153,-0.74772 -1.7153,-1.66741v-16.66522c0,-0.91936 0.76954,-1.66725 1.7153,-1.66725h22.56939c0.94586,0 1.7153,0.74789 1.7153,1.66725zM11.47026,12.66691v12.49255l4.45155,-3.29306c0.67581,-0.50027 1.7277,-0.54542 2.44638,-0.10528l4.194,2.56757c0.15494,0.0945 0.42743,0.05794 0.55026,-0.07361l5.10071,-5.48012c0.31857,-0.34211 0.76095,-0.52925 1.21367,-0.51257c0.45292,0.01617 0.87986,0.23414 1.17159,0.59814l3.93127,4.90438v-11.09802c0,-0.12886 -0.11218,-0.23818 -0.24506,-0.23818h-22.56939c-0.13278,0 -0.24496,0.10932 -0.24496,0.23818zM34.52967,29.33213v-3.24185l-5.09104,-6.35147c-0.02802,-0.03487 -0.05292,-0.04801 -0.0658,-0.04834c-0.01689,0.00051 -0.03876,0.01078 -0.06942,0.04346l-5.10071,5.47978c-0.60112,0.64581 -1.6658,0.78848 -2.42392,0.32392l-4.194,-2.5674c-0.19712,-0.1206 -0.58697,-0.10376 -0.77247,0.03352l-5.34205,3.952v2.37639c0,0.12936 0.11218,0.23835 0.24496,0.23835h22.56939c0.13288,0 0.24506,-0.10898 0.24506,-0.23835zM18.26059,18.144c0,-1.39555 1.16807,-2.53119 2.60395,-2.53119c1.43578,0 2.60395,1.1353 2.60395,2.53119c0,1.39555 -1.16807,2.53119 -2.60395,2.53119c-1.43588,0 -2.60395,-1.13564 -2.60395,-2.53119zM19.73094,18.144c0,0.60774 0.50847,1.10178 1.13361,1.10178c0.62524,0 1.13371,-0.49404 1.13371,-1.10178c0,-0.60791 -0.50847,-1.10212 -1.13371,-1.10212c-0.62514,0 -1.13361,0.49438 -1.13361,1.10212z" fill="#ffffff" fill-opacity="1"></path></g></g></svg>