<?xml version="1.0" encoding="UTF-8"?>
<svg id="SVGDoc" width="46" height="41" xmlns="http://www.w3.org/2000/svg" version="1.1" xmlns:xlink="http://www.w3.org/1999/xlink" xmlns:avocode="https://avocode.com/" viewBox="0 0 46 41"><defs><mask id="Mask1119" x="-1" y="-1" width="2" height="2"><rect width="40" height="35" x="3" y="3" fill="#ffffff"></rect><path d="M2.99994,2.99996v0h40v0v35.00004v0h-40v0z" fill="#000000"></path></mask><filter id="Filter1123" width="66.5" height="61.9" x="-10" y="-10" filterUnits="userSpaceOnUse"><feOffset dx="0.5" dy="0.9" result="FeOffset1124Out" in="SourceGraphic"></feOffset><feGaussianBlur stdDeviation="1.2 1.2" result="FeGaussianBlur1125Out" in="FeOffset1124Out"></feGaussianBlur></filter></defs><desc>Generated with Avocode.</desc><g><g><title>bg</title><g filter="url(#Filter1123)"><path d="M2.99994,2.99996v0h40v0v35.00004v0h-40v0z" fill="none" stroke-opacity="0.75" stroke-width="0" mask="url(&quot;#Mask1119&quot;)"></path><path d="M2.99994,2.99996v0h40v0v35.00004v0h-40v0z" fill="#d5d5d5" fill-opacity="0.75"></path></g><path d="M2.99994,2.99996v0h40v0v35.00004v0h-40v0z" fill="#ffffff" fill-opacity="1"></path></g><g><title>icon</title><path d="M32.94546,16.11693l-3.82963,3.82904c-1.14269,1.14288 -2.87117,1.35091 -4.22768,0.62543l-1.31638,1.31689c0.72521,1.3563 0.51726,3.08469 -0.62573,4.22724l-3.82905,3.82955c-1.3978,1.39757 -3.67244,1.39774 -5.07025,-0.00051c-1.39771,-1.39774 -1.39771,-3.67222 0,-5.06962l3.82934,-3.82938c1.09544,-1.09538 2.72941,-1.33238 4.0577,-0.71049l1.40132,-1.40128c-0.62192,-1.32817 -0.38477,-2.96274 0.71067,-4.05779l3.82934,-3.82938c1.3979,-1.39791 3.67244,-1.39791 5.06976,0c1.39819,1.39807 1.39819,3.67273 0.00059,5.07029zM22.29484,23.16508l-1.11399,1.11408c-0.43964,0.43964 -1.15548,0.43964 -1.59561,0c-0.43983,-0.4398 -0.43983,-1.15569 0,-1.59549l1.02221,-1.02228c-0.55738,-0.05643 -1.13498,0.12751 -1.56144,0.55401l-3.82934,3.82921c-0.75216,0.75294 -0.75216,1.97752 0.00059,2.73029c0.75265,0.75243 1.97745,0.75243 2.7299,0.00017l3.82934,-3.82955c0.4824,-0.48225 0.65404,-1.15838 0.51833,-1.78044zM31.77543,12.21698c-0.75284,-0.75277 -1.97774,-0.75277 -2.7301,-0.00034l-3.82963,3.82938c-0.42607,0.42616 -0.6102,1.00409 -0.55358,1.56096l0.59663,-0.59629c0.43954,-0.43997 1.15519,-0.43997 1.59492,0c0.44032,0.43947 0.44032,1.15535 0.00049,1.59532l-0.6886,0.68843c0.62202,0.13593 1.29744,-0.03537 1.78033,-0.5183l3.82905,-3.82921c0.75304,-0.75277 0.75304,-1.97701 0.00049,-2.72995z" fill="#000000" fill-opacity="1"></path></g></g></svg>